<svg xmlns="http://www.w3.org/2000/svg" height="512" viewBox="0 0 511.333 511.333" width="512"><path d="M486.091 427.82c12.99-18.257 25.242-101.695 25.242-172.159 0-65.667-11.575-152.747-25.181-172.076-2.522-3.574-5.945-6.136-9.715-7.563-91.357-34.596-419.026-26.721-449.33 5.175-1.549 1.63-3.145 3.963-4.177 6.473C6.076 128.561 0 208.857 0 255.661c0 47.037 6.308 128.581 23.006 168.157 1.02 2.418 2.552 4.671 4.106 6.307 30.387 31.968 358.055 39.738 449.326 5.175 3.832-1.453 7.186-4.019 9.653-7.48zM331.068 255.662l126.906-120.561c15.065 71.014 15.288 169.05.001 241.124zm95.298-148.464L255.667 269.362l-170.7-162.164c90.563-15.863 250.36-15.947 341.399 0zM53.359 376.223C38.294 305.21 38.07 207.173 53.357 135.1l126.908 120.562zm31.611 27.902l125.786-119.497 30.447 28.925c8.107 7.7 20.822 7.699 28.928 0l30.447-28.925 125.786 119.497c-90.568 15.863-250.373 15.943-341.394 0z" data-original="#000000" class="active-path" data-old_color="#000000" fill="#FFF"/></svg>